<svg id="Layer_1" data-name="Layer 1" xmlns="http://www.w3.org/2000/svg" width="100" height="200" viewBox="0 0 1445 467">
  <defs>
    <style>
      .cls-1 {
        fill: #ff7518;
      }
    </style>
  </defs>
  <g>
    <path class="cls-1" d="M305.15,233.88c0-44.49,36.63-80.47,82.43-80.47,46.12,0,82.76,36,82.76,80.47,0,44.16-36.64,80.8-82.76,80.8C341.78,314.68,305.15,278,305.15,233.88Zm125.61,0c0-22.24-19.3-41.87-43.18-41.87-23.55,0-42.85,19.63-42.85,41.87,0,22.57,19.3,42.2,42.85,42.2C411.46,276.08,430.76,256.45,430.76,233.88Z"/>
    <path class="cls-1" d="M1136.39,235.19c0-48.74,39.58-81.78,75.57-81.78,24.53,0,38.6,7.52,48.08,21.92l3.77-19h36.79V311.73h-36.79l-4.75-16c-10.79,11.78-24.21,19-47.1,19C1176.63,314.68,1136.39,283.6,1136.39,235.19Zm125.61-.33a43,43,0,0,0-86,.33c0,21.59,19.3,40.89,42.86,40.89C1242.71,276.08,1262,256.78,1262,234.86Z"/>
    <path class="cls-1" d="M1091.18,174.34v-18H1051V311.73h40.23V228c0-25.19,12.44-38.27,34-38.27,1.43,0,2.79.1,4.12.23l7.46-37.51C1115.79,152.56,1100.59,159.75,1091.18,174.34Z"/>
    <path class="cls-1" d="M686.91,174.35l0-18-40.23.09L647,311.82l40.23-.09L687,228C687,202.81,699.38,189.7,721,189.65a39.06,39.06,0,0,1,4.12.23l7.38-37.54C711.47,152.51,696.28,159.73,686.91,174.35Z"/>
    <path class="cls-1" d="M484.28,251.54V156.35h40.23v90.29c0,19.95,11.12,31.73,30.42,31.73,21.59,0,34-13.09,34-38.28V156.35h40.24V311.73H589v-18c-9.48,14.72-24.86,21.92-46.12,21.92C506.85,315.66,484.28,289.49,484.28,251.54Z"/>
    <path class="cls-1" d="M876,234.06c.09-43.51,31.23-80.74,80.62-80.65,45.8.09,78.11,36.78,78,80a80.06,80.06,0,0,1-1,12.76l-118.41-.22c4.54,18.65,19.89,32.09,43.12,32.14,14.06,0,29.12-5.18,38.3-16.94l27.44,22c-14.11,19.93-39,31.66-65.48,31.61C911.86,314.6,875.94,279.53,876,234.06Zm118.12-16.14c-2.26-15.7-18.59-27.84-37.89-27.87-18.65,0-33.71,11.06-39.63,27.73Z"/>
    <path class="cls-1" d="M732.74,277.86l35.78-18.72C774.43,272,786.25,279.5,803,279.5c15.43,0,21.34-4.92,21.34-11.82,0-25-84.71-9.85-84.71-67,0-31.52,27.58-48.26,61.72-48.26,25.94,0,48.92,11.49,61.4,32.83L827.29,204c-5.25-10.51-15.1-16.42-27.58-16.42-12.14,0-18.06,4.27-18.06,11.49,0,24.3,84.71,8.87,84.71,67,0,30.21-24.62,48.59-64.35,48.59C768.19,314.63,744.55,303.47,732.74,277.86Z"/>
    <path class="cls-1" d="M145.4,233.88c0-44.81,36.63-80.8,82.43-80.8a83,83,0,0,1,69.67,37L263.16,210a42.94,42.94,0,0,0-35.33-18.32c-23.55,0-42.85,19.63-42.85,42.2s19.3,42.2,42.85,42.2a42.46,42.46,0,0,0,36.31-20l34,20.28a82.94,82.94,0,0,1-70.33,38.28C182,314.68,145.4,278,145.4,233.88Z"/>
  </g>
</svg>
